<svg xmlns="http://www.w3.org/2000/svg" viewBox="0 0 720 540" role="img" aria-label="Almond Cookie">
  <rect width="720" height="540" fill="#fff8ee"/>
  <ellipse cx="360" cy="420" rx="230" ry="50" fill="#754927" opacity=".14"/>
  <circle cx="360" cy="270" r="150" fill="#c98a4c"/>
  <path d="M231 250c37-80 124-123 205-84 60 29 91 82 90 137-38-17-72-15-100 8-36 30-82 27-119-1-21-16-46-36-76-60Z" fill="#dca363"/>
  <g fill="#f0d7aa" stroke="#91613c" stroke-width="7">
    <ellipse cx="316" cy="227" rx="15" ry="33" transform="rotate(34 316 227)"/>
    <ellipse cx="402" cy="265" rx="15" ry="33" transform="rotate(58 402 265)"/>
    <ellipse cx="338" cy="333" rx="15" ry="33" transform="rotate(21 338 333)"/>
    <ellipse cx="458" cy="334" rx="13" ry="29" transform="rotate(47 458 334)"/>
  </g>
</svg>
