<svg xmlns="http://www.w3.org/2000/svg" viewBox="0 0 1600 900" role="img" aria-labelledby="title desc">
  <title id="title">Warm bakery counter with brownies and cookies</title>
  <desc id="desc">A cozy illustrated bakery scene with trays of brownies, cookies, chocolate, and warm kitchen light.</desc>
  <defs>
    <linearGradient id="bg" x1="0" x2="1" y1="0" y2="1">
      <stop offset="0" stop-color="#fff4e3"/>
      <stop offset=".5" stop-color="#eacda7"/>
      <stop offset="1" stop-color="#8a4f31"/>
    </linearGradient>
    <radialGradient id="glow" cx=".3" cy=".22" r=".55">
      <stop offset="0" stop-color="#fff9d8" stop-opacity=".95"/>
      <stop offset="1" stop-color="#fff9d8" stop-opacity="0"/>
    </radialGradient>
    <filter id="soft" x="-20%" y="-20%" width="140%" height="140%">
      <feGaussianBlur stdDeviation="16"/>
    </filter>
  </defs>
  <rect width="1600" height="900" fill="url(#bg)"/>
  <rect width="1600" height="900" fill="url(#glow)"/>
  <ellipse cx="1120" cy="760" rx="560" ry="95" fill="#3b2118" opacity=".18" filter="url(#soft)"/>
  <path d="M0 635c225-60 432-56 622 12 185 66 335 65 527-5 160-58 311-65 451-22v280H0Z" fill="#fff8f1" opacity=".56"/>
  <g transform="translate(820 210)">
    <rect x="0" y="280" width="565" height="205" rx="30" fill="#5b3225"/>
    <rect x="24" y="305" width="517" height="145" rx="22" fill="#8f5738"/>
    <rect x="70" y="250" width="420" height="78" rx="32" fill="#dba35c"/>
    <rect x="92" y="265" width="376" height="44" rx="22" fill="#fff1d8"/>
    <g transform="translate(62 330)">
      <rect width="122" height="88" rx="16" fill="#2a1714"/>
      <path d="M20 28c32 16 59 13 82-2" fill="none" stroke="#8b4f32" stroke-width="12" stroke-linecap="round"/>
      <circle cx="42" cy="50" r="7" fill="#c58c5c"/>
      <circle cx="78" cy="39" r="6" fill="#c58c5c"/>
    </g>
    <g transform="translate(216 324)">
      <circle cx="54" cy="54" r="51" fill="#b97642"/>
      <circle cx="39" cy="38" r="7" fill="#3a2018"/>
      <circle cx="65" cy="58" r="8" fill="#3a2018"/>
      <circle cx="78" cy="32" r="6" fill="#3a2018"/>
      <circle cx="31" cy="71" r="5" fill="#3a2018"/>
    </g>
    <g transform="translate(360 326)">
      <rect width="128" height="92" rx="17" fill="#351b16"/>
      <path d="M16 52c33-19 69-19 101 2" fill="none" stroke="#a66a40" stroke-width="13" stroke-linecap="round"/>
      <path d="M26 24h77" stroke="#f4d7a4" stroke-width="8" stroke-linecap="round" opacity=".65"/>
    </g>
  </g>
  <g transform="translate(135 185)" opacity=".96">
    <rect x="0" y="385" width="535" height="44" rx="22" fill="#4c2a20"/>
    <rect x="45" y="220" width="430" height="178" rx="34" fill="#b56d3e"/>
    <rect x="78" y="245" width="370" height="118" rx="26" fill="#fff0d5"/>
    <circle cx="158" cy="305" r="42" fill="#b8753f"/>
    <circle cx="260" cy="305" r="42" fill="#9b5c35"/>
    <circle cx="362" cy="305" r="42" fill="#b8753f"/>
    <path d="M114 194c42-85 111-128 207-128 82 0 143 39 182 116" fill="none" stroke="#5d3426" stroke-width="22" stroke-linecap="round"/>
  </g>
</svg>
